<svg width="22" height="20" viewBox="0 0 22 20" fill="none" xmlns="http://www.w3.org/2000/svg">
<path d="M4.79902 15.2778H9.65196V13.6111H4.79902V15.2778ZM15.5833 15.2778H17.201V13.6111H15.5833V15.2778ZM4.79902 10.8333H9.65196V9.16667H4.79902V10.8333ZM15.5833 10.8333H17.201V4.72222H15.5833V10.8333ZM4.79902 6.38889H9.65196V4.72222H4.79902V6.38889ZM1.61765 20C1.18627 20 0.808824 19.8333 0.485294 19.5C0.161765 19.1667 0 18.7778 0 18.3333V1.66667C0 1.22222 0.161765 0.833333 0.485294 0.5C0.808824 0.166667 1.18627 0 1.61765 0H20.3824C20.8137 0 21.1912 0.166667 21.5147 0.5C21.8382 0.833333 22 1.22222 22 1.66667V18.3333C22 18.7778 21.8382 19.1667 21.5147 19.5C21.1912 19.8333 20.8137 20 20.3824 20H1.61765ZM1.61765 18.3333H20.3824V1.66667H1.61765V18.3333Z" fill="#103778" fill-opacity="0.5"/>
</svg>
