<svg width="126" height="113" viewBox="0 0 126 113" fill="none" xmlns="http://www.w3.org/2000/svg">
<circle cx="62.5" cy="56.5" r="55" fill="white" fill-opacity="0.7" stroke="#103778" stroke-width="3"/>
<path d="M53.9148 86H56.7748V74.714L53.9148 75V79.312C53.4528 79.576 52.5288 79.818 51.9568 79.818C50.6368 79.818 50.1528 79.158 50.1528 77.596V75H47.2928V77.882C47.2928 80.324 48.2828 82.216 51.8248 82.216C52.3968 82.216 53.2108 82.062 53.9148 81.842V86ZM61.8676 82.744C61.8676 81.578 63.5616 81.072 65.0796 80.918V83.382C64.6836 83.646 63.9356 83.976 63.1656 83.976C62.3296 83.976 61.8676 83.492 61.8676 82.744ZM60.3716 77.596C60.3716 77.596 61.7356 77.134 62.8356 77.134C64.1776 77.134 65.0576 77.794 65.0796 79.136C61.9556 79.334 59.0076 80.39 59.0076 83.228C59.0076 85.186 60.4376 86.352 62.7916 86.352C63.9136 86.352 65.0796 85.846 65.7616 85.296L67.1916 86.132H67.9396V79.158C67.9396 76.188 66.5096 74.626 63.0556 74.626C61.6036 74.626 60.3936 75.066 60.3936 75.066L60.3716 77.596ZM69.6379 77.464H72.9159V86H75.7759V77.464H78.6579L79.1859 75H69.6379V77.464Z" fill="#103778"/>
<path d="M76.8977 37.6435C77.3848 37.6907 77.8065 37.5678 78.1627 37.2746C78.519 36.9814 78.7207 36.5912 78.768 36.1041C78.8153 35.6171 78.6923 35.1954 78.3991 34.8392C78.1059 34.4829 77.7158 34.2812 77.2287 34.2339C76.7416 34.1866 76.3199 34.3096 75.9637 34.6028C75.6075 34.896 75.4057 35.2861 75.3584 35.7732C75.3111 36.2603 75.4341 36.6819 75.7273 37.0382C76.0205 37.3944 76.4106 37.5962 76.8977 37.6435ZM84.204 38.3527C84.6911 38.3999 85.1127 38.277 85.469 37.9838C85.8252 37.6906 86.027 37.3004 86.0742 36.8133C86.1215 36.3263 85.9986 35.9046 85.7054 35.5484C85.4122 35.1921 85.022 34.9904 84.5349 34.9431C84.0478 34.8958 83.6262 35.0188 83.2699 35.312C82.9137 35.6052 82.7119 35.9953 82.6647 36.4824C82.6174 36.9695 82.7403 37.3911 83.0335 37.7474C83.3267 38.1036 83.7169 38.3054 84.204 38.3527ZM91.2261 39.0343C91.7132 39.0815 92.1348 38.9586 92.4911 38.6654C92.8473 38.3722 93.0491 37.982 93.0963 37.495C93.1436 37.0079 93.0207 36.5862 92.7275 36.23C92.4343 35.8737 92.0441 35.672 91.557 35.6247C91.07 35.5774 90.6483 35.7004 90.292 35.9936C89.9358 36.2868 89.734 36.6769 89.6868 37.164C89.6395 37.6511 89.7625 38.0727 90.0557 38.429C90.3489 38.7852 90.739 38.987 91.2261 39.0343ZM65.8414 54.885L68.7727 24.6859C68.8437 23.9553 69.1834 23.3395 69.792 22.8386C70.4006 22.3378 71.0702 22.1228 71.8008 22.1937L99.2398 24.8571C99.9704 24.928 100.586 25.2678 101.087 25.8763C101.588 26.4849 101.803 27.1545 101.732 27.8852L99.699 48.8297C99.6307 49.5333 99.2916 50.1423 98.6817 50.6567C98.0718 51.1711 97.4016 51.3928 96.6709 51.3219L72.9662 49.021L65.8414 54.885ZM69.2319 48.6585L72.3006 46.1702L96.9388 48.5618L98.9719 27.6172L71.5329 24.9538L69.2319 48.6585Z" fill="#103778" fill-opacity="0.7"/>
<path d="M47.3315 50.545C46.7748 50.678 46.2665 50.6033 45.8066 50.3208C45.3468 50.0383 45.0504 49.6186 44.9174 49.0619C44.7844 48.5051 44.8591 47.9968 45.1416 47.537C45.4241 47.0772 45.8437 46.7807 46.4005 46.6477C46.9572 46.5147 47.4655 46.5895 47.9254 46.872C48.3852 47.1545 48.6816 47.5741 48.8146 48.1309C48.9476 48.6876 48.8729 49.1959 48.5904 49.6557C48.3079 50.1156 47.8883 50.412 47.3315 50.545ZM38.9802 52.5401C38.4235 52.6731 37.9152 52.5983 37.4553 52.3158C36.9955 52.0333 36.6991 51.6137 36.5661 51.057C36.4331 50.5002 36.5078 49.9919 36.7903 49.5321C37.0728 49.0722 37.4924 48.7758 38.0492 48.6428C38.6059 48.5098 39.1142 48.5846 39.5741 48.8671C40.0339 49.1496 40.3303 49.5692 40.4633 50.1259C40.5963 50.6827 40.5216 51.191 40.2391 51.6508C39.9566 52.1107 39.537 52.4071 38.9802 52.5401ZM30.9537 54.4576C30.3969 54.5906 29.8886 54.5158 29.4288 54.2333C28.969 53.9508 28.6725 53.5312 28.5395 52.9745C28.4065 52.4177 28.4813 51.9094 28.7638 51.4496C29.0463 50.9897 29.4659 50.6933 30.0227 50.5603C30.5794 50.4273 31.0877 50.502 31.5476 50.7845C32.0074 51.067 32.3038 51.4867 32.4368 52.0434C32.5698 52.6002 32.4951 53.1085 32.2126 53.5683C31.9301 54.0281 31.5105 54.3246 30.9537 54.4576ZM62.9106 68.7459L54.6643 34.2272C54.4648 33.3921 53.9723 32.7332 53.1867 32.2506C52.4012 31.768 51.5908 31.6265 50.7557 31.826L19.392 39.3186C18.5568 39.5181 17.898 40.0106 17.4154 40.7962C16.9328 41.5817 16.7912 42.3921 16.9907 43.2272L22.7099 67.1676C22.9021 67.9718 23.3927 68.6229 24.182 69.121C24.9712 69.619 25.7834 69.7683 26.6186 69.5688L53.7139 63.0959L62.9106 68.7459ZM57.9823 62.0762L54.0273 59.686L25.8649 66.4139L20.1457 42.4735L51.5094 34.9809L57.9823 62.0762Z" fill="#103778" fill-opacity="0.8"/>
</svg>
