<svg width="18" height="22" viewBox="0 0 18 22" fill="none" xmlns="http://www.w3.org/2000/svg">
<path d="M4.30625 17.0625H13.0271V15.4375H4.30625V17.0625ZM4.30625 12.4583H13.0271V10.8333H4.30625V12.4583ZM1.625 21.6667C1.19167 21.6667 0.8125 21.5042 0.4875 21.1792C0.1625 20.8542 0 20.475 0 20.0417V1.625C0 1.19167 0.1625 0.8125 0.4875 0.4875C0.8125 0.1625 1.19167 0 1.625 0H11.4021L17.3333 5.93125V20.0417C17.3333 20.475 17.1708 20.8542 16.8458 21.1792C16.5208 21.5042 16.1417 21.6667 15.7083 21.6667H1.625ZM10.5896 6.6625V1.625H1.625V20.0417H15.7083V6.6625H10.5896Z" fill="#103778" fill-opacity="0.5"/>
</svg>
