<svg width="21" height="24" viewBox="0 0 21 24" fill="none" xmlns="http://www.w3.org/2000/svg">
<path d="M12.1985 24L11.8897 20.7H10.6544C7.71029 20.7 5.19853 19.69 3.11912 17.67C1.03971 15.65 0 13.21 0 10.35C0 7.49 1.04485 5.05 3.13456 3.03C5.22426 1.01 7.75147 0 10.7162 0C12.1779 0 13.5316 0.255 14.7772 0.765C16.0228 1.275 17.1088 1.99 18.0353 2.91C18.9618 3.83 19.6875 4.915 20.2125 6.165C20.7375 7.415 21 8.78 21 10.26C21 11.58 20.7993 12.9 20.3978 14.22C19.9963 15.54 19.4147 16.8 18.6529 18C17.8912 19.2 16.9647 20.31 15.8735 21.33C14.7824 22.35 13.5574 23.24 12.1985 24ZM13.7426 20.76C15.4309 19.38 16.7537 17.755 17.711 15.885C18.6684 14.015 19.1471 12.14 19.1471 10.26C19.1471 7.78 18.3493 5.75 16.7537 4.17C15.1581 2.59 13.1456 1.8 10.7162 1.8C8.24559 1.8 6.15074 2.635 4.43162 4.305C2.7125 5.975 1.85294 7.99 1.85294 10.35C1.85294 12.71 2.7125 14.725 4.43162 16.395C6.15074 18.065 8.225 18.9 10.6544 18.9H13.7426V20.76ZM10.7162 17.31C11.0456 17.31 11.3235 17.2 11.55 16.98C11.7765 16.76 11.8897 16.49 11.8897 16.17C11.8897 15.85 11.7765 15.58 11.55 15.36C11.3235 15.14 11.0456 15.03 10.7162 15.03C10.3868 15.03 10.1088 15.14 9.88235 15.36C9.65588 15.58 9.54265 15.85 9.54265 16.17C9.54265 16.49 9.65588 16.76 9.88235 16.98C10.1088 17.2 10.3868 17.31 10.7162 17.31ZM9.88235 13.23H11.4265C11.4265 12.73 11.514 12.315 11.689 11.985C11.864 11.655 12.2294 11.22 12.7853 10.68C13.3412 10.14 13.7324 9.645 13.9588 9.195C14.1853 8.745 14.2985 8.26 14.2985 7.74C14.2985 6.84 13.9846 6.1 13.3566 5.52C12.7287 4.94 11.8897 4.65 10.8397 4.65C9.975 4.65 9.20294 4.87 8.52353 5.31C7.84412 5.75 7.33971 6.35 7.01029 7.11L8.43088 7.68C8.65735 7.16 8.97132 6.775 9.37279 6.525C9.77426 6.275 10.2324 6.15 10.7471 6.15C11.3647 6.15 11.8485 6.295 12.1985 6.585C12.5485 6.875 12.7235 7.26 12.7235 7.74C12.7235 8.12 12.6103 8.505 12.3838 8.895C12.1574 9.285 11.7559 9.77 11.1794 10.35C10.6235 10.91 10.2684 11.36 10.114 11.7C9.95956 12.04 9.88235 12.55 9.88235 13.23Z" fill="#103778" fill-opacity="0.5"/>
</svg>
