<svg width="50" height="50" viewBox="0 0 50 50" fill="none" xmlns="http://www.w3.org/2000/svg">
<g clip-path="url(#clip0_746_9)">
<path d="M35.047 50C34.1847 49.8546 33.3131 49.7448 32.4601 49.557C29.2184 48.8444 26.2506 47.4415 23.374 45.8403C18.9271 43.3641 14.8981 40.2031 11.4351 36.4736C7.18828 31.9066 3.67551 26.8531 1.46284 20.9745C0.657395 18.8351 0.0648807 16.6429 0.00800988 14.3356C-0.0488609 12.0283 0.537042 9.91803 2.19555 8.21897C3.51813 6.87029 4.79309 5.46476 6.21486 4.2298C8.4143 2.32051 10.8082 2.33504 12.9269 4.32235C15.1753 6.42469 17.3232 8.63016 19.4181 10.8806C21.029 12.6114 21.0052 15.1686 19.4406 16.9404C18.3336 18.1952 17.1089 19.3481 15.9358 20.5448C15.834 20.6492 15.7176 20.7391 15.5245 20.9097C18.745 26.6561 23.1875 31.1226 28.9764 34.3382C29.9432 33.3598 30.8545 32.4316 31.7723 31.51C32.5209 30.7589 33.2735 30.0132 34.3037 29.6417C35.9966 29.0321 37.6102 29.2344 38.905 30.4641C41.2512 32.6951 43.5371 34.987 45.7625 37.3397C46.5189 38.1493 46.9497 39.2096 46.9721 40.3172C46.9946 41.4248 46.6072 42.5017 45.8842 43.3413C44.4492 44.9993 42.8886 46.5543 41.3094 48.0788C40.1919 49.1577 38.7727 49.7012 37.2319 49.9022C37.1218 49.9247 37.0135 49.9552 36.9079 49.9934L35.047 50ZM35.7453 47.1599C37.511 47.1678 38.8455 46.6482 39.9339 45.511C40.992 44.4057 42.0739 43.3214 43.1425 42.2266C43.2748 42.0944 43.407 41.941 43.5314 41.789C44.2839 40.8489 44.2932 39.9035 43.4758 39.0123C42.6148 38.0788 41.7009 37.1956 40.8042 36.2964C39.6443 35.1316 38.4897 33.9601 37.31 32.8137C36.4463 31.9754 35.4755 31.9662 34.5603 32.7423C34.3871 32.8891 34.227 33.0517 34.0657 33.213C32.9468 34.3276 31.8371 35.4515 30.7103 36.5582C29.9035 37.3516 29.0068 37.4957 28.0308 37.0025C27.3496 36.6574 26.6645 36.3123 26.0085 35.9209C23.0632 34.165 20.4987 31.9423 18.1842 29.4248C16.1382 27.2022 14.2733 24.8499 13.0129 22.0706C12.3516 20.6016 12.4839 19.8823 13.6438 18.765C14.8341 17.6081 16.0244 16.4525 17.1684 15.2466C17.962 14.4017 17.9408 13.5105 17.2094 12.6114C17.0772 12.4474 16.9291 12.2927 16.7809 12.1433C14.9408 10.2984 13.0998 8.45476 11.2578 6.61246C10.0675 5.42245 9.02137 5.41319 7.83502 6.58336C6.69892 7.7046 5.54167 8.80603 4.46377 9.98016C3.93936 10.5326 3.51869 11.1748 3.22187 11.8762C2.63068 13.3796 2.80262 14.9544 3.11739 16.4961C3.60277 18.8682 4.50212 21.1001 5.57077 23.2619C7.45676 27.0832 9.91014 30.5183 12.751 33.6798C17.7768 39.2701 23.7284 43.5211 30.8068 46.1417C32.3908 46.7333 34.0566 47.0767 35.7453 47.1599Z" fill="black"/>
<path d="M50 22.4438C49.9881 22.4543 49.9696 22.4636 49.9643 22.4768C49.6614 23.3151 49.1708 23.7237 48.5161 23.6827C47.7225 23.6311 47.2517 23.175 47.0745 22.2282C46.4512 18.7584 45.0589 15.4721 42.9996 12.6104C40.2685 8.82351 36.7703 5.97279 32.419 4.26315C30.8398 3.64302 29.1602 3.27412 27.5175 2.82456C26.6116 2.57598 26.0958 1.90827 26.2703 1.0951C26.4449 0.281927 27.1961 -0.125318 28.122 0.0373155C32.0277 0.732061 35.7286 2.29108 38.9539 4.6003C44.7145 8.69146 48.645 14.8738 49.9048 21.825C49.9312 21.9349 49.9644 22.043 50.004 22.1489L50 22.4438Z" fill="black"/>
<path d="M27.3773 9.00833C28.1709 9.21328 29.0874 9.3693 29.9498 9.68796C35.9252 11.8917 39.5671 16.1188 40.8756 22.3694C40.9582 22.7317 40.896 23.1119 40.7023 23.429C40.5086 23.7462 40.1987 23.9751 39.8387 24.0672C39.1152 24.2629 38.3666 23.8411 38.1193 23.0729C37.7715 21.9754 37.5599 20.8185 37.0864 19.7805C35.1197 15.4767 31.7776 12.8507 27.1353 11.8934C26.3418 11.7281 25.8842 11.2667 25.8432 10.5871C25.8114 10.2681 25.8912 9.9479 26.0689 9.68105C26.2466 9.4142 26.5113 9.21714 26.8179 9.12336C26.9594 9.07973 27.1062 9.06386 27.3773 9.00833Z" fill="black"/>
</g>
<defs>
<clipPath id="clip0_746_9">
<rect width="50" height="50" fill="white"/>
</clipPath>
</defs>
</svg>
