<svg width="26" height="32" viewBox="0 0 26 32" fill="none" xmlns="http://www.w3.org/2000/svg">
<path d="M2.4375 18.5263C2.4375 20.2947 2.82344 21.9579 3.59531 23.5158C4.36719 25.0737 5.44375 26.3719 6.825 27.4105C6.71667 27.0737 6.63542 26.7298 6.58125 26.3789C6.52708 26.0281 6.5 25.6842 6.5 25.3474C6.5 24.4491 6.6625 23.607 6.9875 22.8211C7.3125 22.0351 7.78646 21.3193 8.40938 20.6737L13 16L17.5906 20.6737C18.2135 21.3193 18.6875 22.0351 19.0125 22.8211C19.3375 23.607 19.5 24.4491 19.5 25.3474C19.5 25.6842 19.4729 26.0281 19.4187 26.3789C19.3646 26.7298 19.2833 27.0737 19.175 27.4105C20.5562 26.3719 21.6328 25.0737 22.4047 23.5158C23.1766 21.9579 23.5625 20.2947 23.5625 18.5263C23.5625 17.0105 23.251 15.5298 22.6281 14.0842C22.0052 12.6386 21.1115 11.3123 19.9469 10.1053C19.3781 10.5263 18.7823 10.8561 18.1594 11.0947C17.5365 11.3333 16.9135 11.4526 16.2906 11.4526C14.6385 11.4526 13.2708 10.8702 12.1875 9.70526C11.1042 8.54035 10.5625 7.07368 10.5625 5.30526V4.46316C9.31667 5.38947 8.19271 6.41403 7.19063 7.53684C6.18854 8.65965 5.33542 9.83158 4.63125 11.0526C3.92708 12.2737 3.38542 13.5228 3.00625 14.8C2.62708 16.0772 2.4375 17.3193 2.4375 18.5263ZM13 19.5368L10.1156 22.4842C9.73646 22.8772 9.44531 23.3123 9.24219 23.7895C9.03906 24.2667 8.9375 24.786 8.9375 25.3474C8.9375 26.4982 9.33021 27.4737 10.1156 28.2737C10.901 29.0737 11.8625 29.4737 13 29.4737C14.1375 29.4737 15.099 29.0737 15.8844 28.2737C16.6698 27.4737 17.0625 26.4982 17.0625 25.3474C17.0625 24.786 16.9609 24.2667 16.7578 23.7895C16.5547 23.3123 16.2635 22.8772 15.8844 22.4842L13 19.5368ZM13 0V5.5579C13 6.51228 13.3182 7.31228 13.9547 7.95789C14.5911 8.60351 15.3698 8.92632 16.2906 8.92632C16.7781 8.92632 17.2318 8.82105 17.6516 8.61053C18.0714 8.4 18.4438 8.08421 18.7688 7.66316L19.5 6.73684C21.5042 7.91579 23.0885 9.55789 24.2531 11.6632C25.4177 13.7684 26 16.0561 26 18.5263C26 22.2877 24.7406 25.4737 22.2219 28.0842C19.7031 30.6947 16.6292 32 13 32C9.37083 32 6.29687 30.6947 3.77812 28.0842C1.25937 25.4737 0 22.2877 0 18.5263C0 14.9333 1.16458 11.4737 3.49375 8.14737C5.82292 4.82105 8.99167 2.10526 13 0Z" fill="#103778" fill-opacity="0.5"/>
</svg>
