<svg width="24" height="46" viewBox="0 0 24 46" fill="none" xmlns="http://www.w3.org/2000/svg">
<path d="M22.545 0C23.5871 0.529772 23.9792 1.44278 23.9482 2.68268C23.907 4.61014 23.9379 6.53761 23.9379 8.46508C23.9379 10.1108 23.1125 11.0012 21.5957 11.0125C20.3885 11.0238 19.1813 11.0125 17.9844 11.0463C17.0455 11.0689 16.8804 11.2379 16.8598 12.2637C16.8288 13.3232 16.8495 14.3827 16.8495 15.4874C17.0146 15.4987 17.159 15.5099 17.3035 15.5099C18.6757 15.5099 20.048 15.5099 21.41 15.5099C22.8752 15.5212 23.6903 16.4229 23.7006 18.0235C23.7006 20.2215 23.7006 22.4195 23.7006 24.6288C23.7006 26.1955 22.8545 27.1086 21.4203 27.1198C19.9139 27.1198 18.4075 27.1198 16.8288 27.1198C16.8288 27.334 16.8288 27.5143 16.8288 27.706C16.8288 32.9473 16.8391 38.1774 16.8185 43.4188C16.8185 43.9373 16.6947 44.5009 16.478 44.9517C16.1478 45.6506 15.5288 45.9775 14.8065 45.9887C12.5366 46 10.2563 46.0113 7.98632 45.9887C6.89262 45.9775 6.08782 45.087 6.00527 43.8922C5.99496 43.6893 5.98464 43.4751 5.98464 43.261C5.98464 38.0872 5.98464 32.9022 5.98464 27.7285C5.98464 27.5369 5.98464 27.3453 5.98464 27.1198C4.7568 27.1198 3.58055 27.1198 2.4043 27.1198C2.15667 27.1198 1.90904 27.1086 1.67172 27.0635C0.732789 26.8831 0.0311662 26.049 0.0208482 25.012C0.000212267 22.5548 -0.0101057 20.0975 0.0208482 17.6516C0.0311662 16.4906 0.866922 15.5888 1.93999 15.5437C3.10592 15.5099 4.27185 15.5325 5.43778 15.5212C5.60287 15.5212 5.76796 15.5212 5.97432 15.5212C5.98464 15.3296 5.99496 15.1718 5.99496 15.014C6.00527 13.6726 5.97432 12.32 6.03623 10.9787C6.17036 8.19456 6.94421 5.66969 8.66731 3.56187C10.2769 1.58932 12.3199 0.5185 14.6827 0.101446C14.7859 0.0789022 14.889 0.045087 14.9922 0.0112717C17.5098 0 20.0274 0 22.545 0ZM2.48684 24.4146C2.68289 24.4146 2.82734 24.4146 2.98211 24.4146C4.3544 24.4146 5.72669 24.4033 7.08866 24.4259C7.83155 24.4371 8.34745 24.9556 8.44032 25.7672C8.46095 25.9588 8.46095 26.1505 8.46095 26.3533C8.46095 31.7976 8.46095 37.2531 8.46095 42.6974C8.46095 42.889 8.46095 43.0693 8.46095 43.261C10.4626 43.261 12.3921 43.261 14.3525 43.261C14.3525 43.0355 14.3525 42.8326 14.3525 42.641C14.3525 37.1629 14.3525 31.6849 14.3525 26.2068C14.3525 24.9669 14.8581 24.4259 15.9828 24.4259C17.5717 24.4259 19.1607 24.4259 20.7497 24.4259C20.8941 24.4259 21.0386 24.4259 21.1933 24.4259C21.1933 22.3293 21.1933 20.2891 21.1933 18.2264C21.0076 18.2264 20.8632 18.2264 20.7084 18.2264C19.1091 18.2264 17.4995 18.2264 15.9002 18.2264C14.9819 18.2264 14.3835 17.6966 14.3732 16.7385C14.3525 15.0591 14.3525 13.3796 14.4247 11.7113C14.4866 10.3136 15.0851 9.20902 16.3439 8.69052C16.8082 8.4989 17.3241 8.38618 17.8194 8.36364C18.8821 8.30728 19.9552 8.32982 21.0282 8.31855C21.1727 8.31855 21.3171 8.29601 21.4513 8.29601C21.4513 6.37981 21.4513 4.51997 21.4513 2.56996C19.398 2.61505 17.3654 2.5925 15.343 2.73903C13.7747 2.85175 12.3405 3.52806 11.1333 4.67777C9.36893 6.36854 8.61572 8.58907 8.50222 11.0801C8.41968 12.8611 8.47127 14.642 8.46095 16.4229C8.45063 17.6403 7.93473 18.2151 6.82039 18.2151C5.52033 18.2151 4.22026 18.2151 2.9202 18.2151C2.77575 18.2151 2.6313 18.2264 2.48684 18.2377C2.48684 20.3117 2.48684 22.3293 2.48684 24.4146Z" fill="black"/>
</svg>
